<svg xmlns="http://www.w3.org/2000/svg" width="682" height="727" viewBox="0 0 682 727" version="1.1"><path d="M 326.754 515.022 C 314.938 518.003, 304.230 526.997, 298.803 538.500 C 295.634 545.216, 295.501 545.987, 295.515 557.500 C 295.532 571.394, 297.355 577.474, 304.040 585.932 C 322.557 609.358, 363.449 605.827, 375.851 579.731 C 379.807 571.406, 379.935 571.538, 367.626 571.215 L 356.752 570.930 353.276 574.991 C 348.651 580.394, 345.047 582.100, 338.198 582.128 C 331.309 582.155, 328.332 581.108, 323.676 577.020 C 318.801 572.740, 316.494 566.273, 316.525 556.977 C 316.547 550.444, 316.957 548.734, 319.640 543.977 C 322.089 539.638, 323.849 537.909, 328.115 535.654 C 332.775 533.191, 334.283 532.876, 339.317 533.315 C 345.867 533.886, 352.344 537.466, 354.200 541.541 C 355.299 543.953, 355.550 544, 367.228 544 C 379.111 544, 379.133 543.995, 378.454 541.750 C 375.510 532.016, 364.854 520.615, 355.285 516.960 C 348.763 514.469, 333.150 513.409, 326.754 515.022 M 54 558 L 54 601 80.500 601 L 107 601 107 592.500 L 107 584 91 584 L 75 584 75 574.500 L 75 565 89 565 L 103 565 103 557 L 103 549 89 549 L 75 549 75 540.525 L 75 532.051 90.750 531.775 L 106.500 531.500 106.790 523.250 L 107.081 515 80.540 515 L 54 515 54 558 M 116.626 516.250 C 117.035 516.938, 123.131 526.146, 130.172 536.713 C 137.214 547.280, 143.093 556.325, 143.238 556.813 C 143.382 557.301, 137.537 567.159, 130.250 578.719 C 122.963 590.279, 117 600.036, 117 600.400 C 117 600.765, 122.270 600.937, 128.712 600.782 L 140.423 600.500 147.238 589 C 150.987 582.675, 154.408 576.917, 154.842 576.205 C 155.374 575.331, 158.446 579.139, 164.319 587.955 L 173.008 601 185.004 601 C 191.602 601, 197 600.767, 197 600.483 C 197 600.198, 190.736 590.585, 183.080 579.119 L 169.159 558.273 181.644 538.450 C 188.511 527.548, 194.566 517.811, 195.100 516.814 C 196.012 515.110, 195.357 515, 184.283 515 L 172.496 515 165.157 527.503 C 161.121 534.379, 157.484 539.799, 157.077 539.547 C 156.669 539.295, 152.772 533.678, 148.418 527.064 L 140.500 515.038 128.191 515.019 C 118.610 515.004, 116.047 515.277, 116.626 516.250 M 219.997 551.750 C 212.699 571.962, 205.678 591.327, 204.396 594.782 L 202.065 601.065 213.201 600.782 L 224.337 600.500 226.752 593.250 L 229.167 586 245.407 586 L 261.648 586 264 593.500 L 266.352 601 277.651 601 L 288.950 601 286.098 593.250 C 284.529 588.987, 277.510 569.638, 270.500 550.250 L 257.753 515 245.511 515 L 233.268 515 219.997 551.750 M 387 523.500 L 387 532 398.500 532 L 410 532 410 566.500 L 410 601 420.500 601 L 431 601 431 566.500 L 431 532 442.500 532 L 454 532 454 523.500 L 454 515 420.500 515 L 387 515 387 523.500 M 464 558 L 464 601 474.500 601 L 485 601 485 585 L 485 569 487.768 569 C 490.309 569, 491.263 570.315, 499.376 585 L 508.215 601 520.189 601 L 532.163 601 530.177 597.750 C 529.085 595.962, 524.595 588.343, 520.199 580.817 L 512.207 567.133 517.612 564.489 C 526.510 560.136, 530.875 552.592, 530.956 541.429 C 531.040 529.846, 523.451 519.993, 511.774 516.526 C 507.871 515.366, 501.516 515, 485.318 515 L 464 515 464 558 M 568.895 517.719 C 566.605 523.619, 539 600.088, 539 600.531 C 539 600.789, 543.913 601, 549.917 601 L 560.833 601 563.249 593.750 L 565.665 586.500 581.722 586.226 L 597.779 585.952 600.524 593.476 L 603.268 601 614.134 601 C 620.110 601, 624.979 600.663, 624.954 600.250 C 624.929 599.837, 618.060 580.600, 609.690 557.500 L 594.471 515.500 582.222 515.219 L 569.974 514.938 568.895 517.719 M 485.477 533.200 C 485.171 533.998, 485.051 538.891, 485.210 544.075 L 485.500 553.500 494.208 553.476 C 501.443 553.457, 503.388 553.101, 505.700 551.375 C 511.121 547.327, 511.154 538.697, 505.765 534.674 C 502.200 532.013, 486.373 530.863, 485.477 533.200 M 240.457 553.187 C 237.844 561.059, 235.499 568.063, 235.246 568.750 C 234.896 569.700, 237.329 570, 245.393 570 C 251.227 570, 256 569.835, 256 569.634 C 256 568.985, 245.876 539.543, 245.536 539.203 C 245.355 539.022, 243.070 545.315, 240.457 553.187 M 576.718 553.305 C 574.123 561.152, 572 568.119, 572 568.786 C 572 569.657, 574.826 570, 582 570 C 587.500 570, 592 569.663, 592 569.251 C 592 567.962, 582.785 540.539, 582.093 539.768 C 581.732 539.366, 579.313 545.457, 576.718 553.305 M 65.333 614.137 C 58.539 616.019, 54.494 624.756, 57.166 631.777 C 60.876 641.525, 75.876 642.942, 80.509 633.983 L 82.051 631 78.454 631 C 76.476 631, 74.182 631.675, 73.357 632.500 C 71.298 634.559, 66.658 634.384, 64.655 632.171 C 61.998 629.236, 62.513 623.528, 65.657 621.055 C 68.470 618.842, 71.136 619.041, 74.156 621.689 C 75.068 622.488, 77.193 622.997, 78.882 622.820 C 81.771 622.519, 81.879 622.359, 80.725 620.096 C 78.146 615.037, 71.448 612.444, 65.333 614.137 M 92.316 614.943 C 87.270 617.235, 85 621.151, 85 627.568 C 85 631.656, 85.482 632.717, 88.882 636.118 C 92.331 639.566, 93.309 640, 97.632 639.996 C 104.235 639.991, 108.313 637.365, 110.464 631.734 C 113.447 623.923, 109.739 616.220, 101.917 613.976 C 97.456 612.697, 97.210 612.722, 92.316 614.943 M 495.272 613.840 C 491.599 614.928, 488.999 617.796, 489.015 620.740 C 489.038 624.741, 490.257 626.138, 496.195 628.970 C 499.120 630.365, 501.500 632.173, 501.500 633 C 501.500 635.071, 497.150 635.556, 496.389 633.570 C 496.005 632.570, 494.554 632, 492.393 632 C 488.247 632, 487.908 633.999, 491.455 637.545 C 493.391 639.482, 494.920 639.993, 498.705 639.968 C 503.823 639.934, 505.961 638.837, 507.861 635.271 C 510.361 630.577, 507.488 626.610, 499.750 624.074 C 495.228 622.592, 494.343 619, 498.500 619 C 499.875 619, 501 619.450, 501 620 C 501 620.550, 502.575 621, 504.500 621 C 508.616 621, 509.060 619.322, 505.750 616.282 C 503.200 613.940, 498.573 612.862, 495.272 613.840 M 115 627 L 115 640 118.500 640 L 122 640 122.007 632.250 L 122.015 624.500 127.144 632.250 C 131.852 639.364, 132.548 640, 135.636 640 L 139 640 139 627 L 139 614 135.500 614 L 132 614 131.982 621.750 L 131.964 629.500 126.995 621.750 C 122.345 614.497, 121.801 614, 118.513 614 L 115 614 115 627 M 142 616.500 C 142 618.690, 142.433 619, 145.500 619 L 149 619 149 629.500 L 149 640 152 640 L 155 640 155 629.500 L 155 619 158.500 619 C 161.567 619, 162 618.690, 162 616.500 L 162 614 152 614 L 142 614 142 616.500 M 172.497 615.250 C 172.255 615.938, 170.249 621.450, 168.040 627.500 C 165.830 633.550, 164.017 638.837, 164.011 639.250 C 164.005 639.663, 165.526 640, 167.392 640 C 170.175 640, 170.896 639.552, 171.411 637.500 C 171.964 635.296, 172.572 635, 176.540 635 C 180.373 635, 181.212 635.372, 182.182 637.500 C 183.062 639.431, 184.072 640, 186.618 640 L 189.915 640 185.457 627.435 C 183.006 620.524, 181 614.674, 181 614.435 C 181 613.348, 172.893 614.125, 172.497 615.250 M 193 627 L 193 640 201.045 640 C 208.254 640, 209.346 639.745, 211.545 637.545 C 214.623 634.468, 214.665 631.574, 211.676 628.585 C 209.469 626.378, 209.444 626.204, 211.176 625.122 C 213.630 623.589, 213.533 618.533, 211 616 C 209.333 614.333, 207.667 614, 201 614 L 193 614 193 627 M 217 627 L 217 640 220.500 640 L 224 640 224 627 L 224 614 220.500 614 L 217 614 217 627 M 228 627 L 228 640 235.500 640 C 242.833 640, 243 639.944, 243 637.500 C 243 635.250, 242.600 635, 239 635 L 235 635 235 624.500 L 235 614 231.500 614 L 228 614 228 627 M 246 627 L 246 640 249.500 640 L 253 640 253 627 L 253 614 249.500 614 L 246 614 246 627 M 257 627 L 257 640 264.050 640 C 272.274 640, 276.208 638.347, 279.040 633.701 C 281.658 629.409, 281.534 624.089, 278.720 619.912 C 275.558 615.220, 272.642 614.032, 264.250 614.015 L 257 614 257 627 M 291.497 615.250 C 291.255 615.938, 289.249 621.450, 287.040 627.500 C 284.830 633.550, 283.017 638.837, 283.011 639.250 C 283.005 639.663, 284.526 640, 286.392 640 C 289.175 640, 289.896 639.552, 290.411 637.500 C 290.964 635.296, 291.572 635, 295.540 635 C 299.373 635, 300.212 635.372, 301.182 637.500 C 302.062 639.431, 303.072 640, 305.618 640 L 308.915 640 304.457 627.435 C 302.006 620.524, 300 614.674, 300 614.435 C 300 613.348, 291.893 614.125, 291.497 615.250 M 312 627 L 312 640 318.599 640 C 329.637 640, 335 635.764, 335 627.046 C 335 617.878, 330.259 614, 319.050 614 L 312 614 312 627 M 339 627 L 339 640 347 640 C 354.867 640, 355 639.958, 355 637.500 C 355 635.204, 354.633 635, 350.500 635 C 346.167 635, 346 634.889, 346 632 C 346 629.167, 346.222 629, 350 629 C 353.600 629, 354 628.750, 354 626.500 C 354 624.250, 353.600 624, 350 624 C 346.400 624, 346 623.750, 346 621.500 C 346 619.204, 346.367 619, 350.500 619 C 354.633 619, 355 618.796, 355 616.500 C 355 614.042, 354.867 614, 347 614 L 339 614 339 627 M 367 627 L 367 640 375 640 C 382.867 640, 383 639.958, 383 637.500 C 383 635.204, 382.633 635, 378.500 635 C 374.167 635, 374 634.889, 374 632 C 374 629.167, 374.222 629, 378 629 C 381.600 629, 382 628.750, 382 626.500 C 382 624.250, 381.600 624, 378 624 C 374.400 624, 374 623.750, 374 621.500 C 374 619.204, 374.367 619, 378.500 619 C 382.633 619, 383 618.796, 383 616.500 C 383 614.042, 382.867 614, 375 614 L 367 614 367 627 M 387 626.943 L 387 640 390.454 640 L 393.909 640 394.204 633.250 L 394.500 626.500 396.935 633.250 C 399.121 639.310, 399.645 640, 402.063 640 C 404.457 640, 405.009 639.306, 407.033 633.750 C 410.290 624.813, 411 624.643, 411 632.800 L 411 640 414 640 L 417 640 417 627 L 417 614 413.143 614 L 409.286 614 405.984 622.541 C 404.168 627.239, 402.337 630.726, 401.915 630.291 C 401.493 629.856, 399.818 626.125, 398.192 622 L 395.235 614.500 391.118 614.193 L 387 613.885 387 626.943 M 421 627 L 421 640 424.500 640 C 427.981 640, 428 639.976, 428 635.500 C 428 631.351, 428.198 631, 430.532 631 C 437.785 631, 443.149 625.153, 441.024 619.563 C 439.446 615.413, 436.209 614, 428.277 614 L 421 614 421 627 M 445 627 L 445 640 448 640 C 450.933 640, 451 639.889, 451 635 C 451 632.250, 451.378 630, 451.841 630 C 452.304 630, 453.907 632.250, 455.403 635 C 457.854 639.503, 458.467 640, 461.562 640 C 463.453 640, 465 639.766, 465 639.480 C 465 639.194, 463.875 637.178, 462.500 635 C 461.125 632.822, 460 630.826, 460 630.565 C 460 630.304, 461.125 628.966, 462.500 627.591 C 465.793 624.298, 465.812 619.721, 462.545 616.455 C 460.373 614.282, 459.223 614, 452.545 614 L 445 614 445 627 M 469 627 L 469 640 477 640 C 484.867 640, 485 639.958, 485 637.500 C 485 635.204, 484.633 635, 480.500 635 C 476.167 635, 476 634.889, 476 632 C 476 629.167, 476.222 629, 480 629 C 483.600 629, 484 628.750, 484 626.500 C 484 624.250, 483.600 624, 480 624 C 476.400 624, 476 623.750, 476 621.500 C 476 619.204, 476.367 619, 480.500 619 C 484.633 619, 485 618.796, 485 616.500 C 485 614.042, 484.867 614, 477 614 L 469 614 469 627 M 519.497 615.250 C 519.255 615.938, 517.249 621.450, 515.040 627.500 C 512.830 633.550, 511.017 638.837, 511.011 639.250 C 511.005 639.663, 512.526 640, 514.392 640 C 517.175 640, 517.896 639.552, 518.411 637.500 C 518.964 635.296, 519.572 635, 523.540 635 C 527.373 635, 528.212 635.372, 529.182 637.500 C 530.062 639.431, 531.072 640, 533.618 640 L 536.915 640 532.457 627.435 C 530.006 620.524, 528 614.674, 528 614.435 C 528 613.348, 519.893 614.125, 519.497 615.250 M 540 627 L 540 640 543 640 C 545.933 640, 546 639.889, 546 635 C 546 632.250, 546.378 630, 546.841 630 C 547.304 630, 548.907 632.250, 550.403 635 C 552.854 639.503, 553.467 640, 556.562 640 C 558.453 640, 560 639.766, 560 639.480 C 560 639.194, 558.875 637.178, 557.500 635 C 556.125 632.822, 555 630.826, 555 630.565 C 555 630.304, 556.125 628.966, 557.500 627.591 C 560.793 624.298, 560.812 619.721, 557.545 616.455 C 555.373 614.282, 554.223 614, 547.545 614 L 540 614 540 627 M 564 627 L 564 640 567.500 640 L 571 640 571 627 L 571 614 567.500 614 L 564 614 564 627 M 582.497 615.250 C 582.255 615.938, 580.249 621.450, 578.040 627.500 C 575.830 633.550, 574.017 638.837, 574.011 639.250 C 574.005 639.663, 575.526 640, 577.392 640 C 580.175 640, 580.896 639.552, 581.411 637.500 C 581.964 635.296, 582.572 635, 586.540 635 C 590.373 635, 591.212 635.372, 592.182 637.500 C 593.062 639.431, 594.072 640, 596.618 640 L 599.915 640 595.457 627.435 C 593.006 620.524, 591 614.674, 591 614.435 C 591 613.348, 582.893 614.125, 582.497 615.250 M 603 627 L 603 640 610.500 640 C 617.833 640, 618 639.944, 618 637.500 C 618 635.204, 617.633 635, 613.500 635 L 609 635 609 624.500 L 609 614 606 614 L 603 614 603 627 M 94.302 620.501 C 91.583 622.405, 90.492 627.171, 92.083 630.191 C 93.710 633.280, 94.907 633.967, 98.693 633.985 C 104.776 634.014, 107.204 626.114, 102.545 621.455 C 99.728 618.637, 97.355 618.362, 94.302 620.501 M 199 621.500 C 199 623.675, 199.440 624, 202.393 624 C 205.979 624, 207.652 622.052, 205.722 620.122 C 205.105 619.505, 203.340 619, 201.800 619 C 199.480 619, 199 619.429, 199 621.500 M 264 626.500 L 264 634 267.345 634 C 271.610 634, 274 631.394, 274 626.744 C 274 622.640, 270.411 619, 266.365 619 C 264.089 619, 264 619.281, 264 626.500 M 318 626.369 L 318 634 321.309 634 C 325.753 634, 327.930 632.205, 328.617 627.974 C 329.365 623.366, 326.806 620.148, 321.750 619.339 L 318 618.738 318 626.369 M 428 622.063 C 428 624.916, 428.223 625.105, 431.242 624.813 C 436.870 624.269, 435.978 619.054, 430.250 619.015 C 428.403 619.003, 428 619.549, 428 622.063 M 451.187 622.250 C 451.467 625.160, 451.805 625.478, 454.417 625.289 C 460.114 624.877, 459.633 619, 453.901 619 C 451.087 619, 450.895 619.230, 451.187 622.250 M 546.187 622.250 C 546.467 625.160, 546.805 625.478, 549.417 625.289 C 555.114 624.877, 554.633 619, 548.901 619 C 546.087 619, 545.895 619.230, 546.187 622.250 M 175.631 624.334 C 175.289 625.698, 174.733 627.531, 174.397 628.407 C 173.920 629.650, 174.457 630, 176.841 630 C 179.843 630, 179.877 629.944, 178.811 626.750 C 177.283 622.170, 176.352 621.463, 175.631 624.334 M 294.631 624.334 C 294.289 625.698, 293.733 627.531, 293.397 628.407 C 292.920 629.650, 293.457 630, 295.841 630 C 298.843 630, 298.877 629.944, 297.811 626.750 C 296.283 622.170, 295.352 621.463, 294.631 624.334 M 522.631 624.334 C 522.289 625.698, 521.733 627.531, 521.397 628.407 C 520.920 629.650, 521.457 630, 523.841 630 C 526.843 630, 526.877 629.944, 525.811 626.750 C 524.283 622.170, 523.352 621.463, 522.631 624.334 M 585.631 624.334 C 585.289 625.698, 584.733 627.531, 584.397 628.407 C 583.920 629.650, 584.457 630, 586.841 630 C 589.843 630, 589.877 629.944, 588.811 626.750 C 587.283 622.170, 586.352 621.463, 585.631 624.334 M 199 631.940 C 199 634.615, 199.346 634.998, 201.750 634.985 C 205.435 634.964, 207.273 633.662, 206.840 631.380 C 206.580 630.012, 205.465 629.416, 202.742 629.190 C 199.167 628.893, 199 629.016, 199 631.940" stroke="none" fill="#ffffff" fill-rule="evenodd"/><path d="M 259.500 55.018 C 243.317 56.185, 222.987 64.097, 205.289 76.116 C 194.836 83.215, 178.893 99.404, 171.173 110.759 C 156.895 131.760, 146.007 160.048, 140.288 191 C 137.751 204.730, 137.795 254.611, 140.362 274.462 C 147.333 328.378, 174.862 375.743, 215.115 403.078 C 222.709 408.235, 239.647 416.942, 248.614 420.299 C 272.068 429.078, 273.563 429.184, 380.834 429.713 L 472.168 430.164 475.425 426.332 C 481.581 419.089, 491.567 406.465, 506.340 387.251 L 521.140 368.002 506.641 350.251 C 485.031 323.794, 476.080 313.838, 474.222 314.196 C 473.332 314.367, 464.980 324.406, 455.661 336.504 L 438.718 358.500 423.609 359.118 C 399.602 360.099, 317.775 360.020, 303.500 359.002 C 283.788 357.596, 268.236 352.379, 254.660 342.618 C 240.750 332.617, 231.695 321.220, 221.406 300.764 C 213.550 285.146, 213.131 281.745, 218.750 279.199 C 222.183 277.643, 228.368 277.524, 292 277.785 L 361.500 278.070 386.828 244.311 L 412.155 210.552 409.328 209.690 C 407.772 209.216, 362.345 208.583, 308.378 208.282 C 218.666 207.783, 210.287 207.598, 210.611 206.118 C 210.806 205.228, 212.294 199.100, 213.919 192.500 C 221.898 160.080, 235.106 143.052, 262.500 129.869 L 269.500 126.500 365.939 126 L 462.379 125.500 477.257 105 C 485.441 93.725, 496.010 79.100, 500.744 72.500 C 505.479 65.900, 510.452 59.037, 511.795 57.250 L 514.237 54 391.869 54.148 C 324.566 54.230, 265 54.621, 259.500 55.018" stroke="none" fill="#c10509" fill-rule="evenodd"/></svg>